<?xml version="1.0" encoding="UTF-8"?>
<svg width="32px" height="32px" viewBox="0 0 32 32" version="1.1" xmlns="http://www.w3.org/2000/svg" xmlns:xlink="http://www.w3.org/1999/xlink">
    <!-- Generator: Sketch 55.1 (78136) - https://sketchapp.com -->
    <title>facebook link</title>
    <desc>Created with Sketch.</desc>
    <g id="🎨-Design-::-Desktop-v1.0" stroke="none" stroke-width="1" fill="none" fill-rule="evenodd">
        <g id="_icons" transform="translate(-666.000000, -275.000000)" fill-rule="nonzero">
            <g id="facebook-link" transform="translate(666.000000, 275.000000)">
                <path d="M30.2333333,0 L1.77777778,0 C0.795938223,0 0,0.795938223 0,1.77777778 L0,30.2444444 C0.0121653259,31.2175947 0.804551473,32 1.77777778,32 L17.1111111,32 L17.1111111,19.6244444 L12.9377778,19.6244444 L12.9377778,14.7822222 L17.0933333,14.7822222 L17.0933333,11.2266667 C17.0933333,7.09333333 19.6177778,4.84222222 23.3155556,4.84222222 C24.5602705,4.83813251 25.8042999,4.90118707 27.0422222,5.03111111 L27.0422222,9.33333333 L24.4888889,9.33333333 C22.4888889,9.33333333 22.0933333,10.2866667 22.0933333,11.6844444 L22.0933333,14.7822222 L26.8888889,14.7822222 L26.2666667,19.6244444 L22.0933333,19.6244444 L22.0933333,32 L30.2333333,32 C31.2065137,31.9939364 31.9939364,31.2065137 32,30.2333333 L32,1.77777778 C32,0.800261064 31.210831,0.00610947928 30.2333333,0 Z" id="Path" fill="#022835"></path>
                <path d="M22.0933333,32 L22.0933333,19.6244444 L26.2666667,19.6244444 L26.8888889,14.7822222 L22.0933333,14.7822222 L22.0933333,11.6955556 C22.0933333,10.2977778 22.4822222,9.34444444 24.4888889,9.34444444 L27.0311111,9.34444444 L27.0311111,5.02222222 C25.7931888,4.89229818 24.5491594,4.82924362 23.3044444,4.8331465 C19.6177778,4.8331465 17.0933333,7.08444444 17.0933333,11.2177778 L17.0933333,14.7733333 L12.9377778,14.7733333 L12.9377778,19.6244444 L17.0933333,19.6244444 L17.0933333,32 L22.0933333,32 Z" id="f" fill="#FFFFFF"></path>
            </g>
        </g>
    </g>
</svg>