<?xml version="1.0" encoding="UTF-8"?>
<svg width="151px" height="69px" viewBox="0 0 151 69" version="1.1" xmlns="http://www.w3.org/2000/svg" xmlns:xlink="http://www.w3.org/1999/xlink">
    <!-- Generator: Sketch 55.1 (78136) - https://sketchapp.com -->
    <title>company logo minimal</title>
    <desc>Created with Sketch.</desc>
    <g id="🎨-Design-::-Desktop-v1.0" stroke="none" stroke-width="1" fill="none" fill-rule="evenodd">
        <g id="_icons" transform="translate(-666.000000, -157.000000)" fill="#1D1D1B" fill-rule="nonzero">
            <g id="company-logo-minimal" transform="translate(666.000000, 157.000000)">
                <path d="M128.38,10.265 C114.23,4 95.435,0.535 75.46,0.499732839 C55.485,0.465 36.675,3.87 22.5,10.085 C8,16.445 0,25.04 0,34.295 C0,43.55 7.95,52.17 22.425,58.58 C36.575,64.84 55.37,68.31 75.345,68.3401968 C95.32,68.37 114.13,64.97 128.3,58.755 C142.8,52.395 150.8,43.8 150.8,34.545 C150.8,25.29 142.855,16.67 128.38,10.265 Z M127.295,56.465 C113.435,62.545 95,65.875 75.35,65.8402731 C55.7,65.805 37.275,62.415 23.435,56.29 C9.92,50.31 2.5,42.5 2.5,34.3 C2.5,26.1 10,18.3 23.5,12.375 C37.37,6.295 55.82,2.965 75.455,2.99972688 C95.09,3.035 113.53,6.425 127.37,12.55 C140.87,18.55 148.32,26.34 148.305023,34.55 C148.29,42.76 140.83,50.53 127.295,56.465 Z" id="Shape"></path>
                <path d="M115.79,21.455 C115.361344,21.4786949 114.971243,21.7101423 114.745,22.075 L106.355,37.575 C106.17,37.915 105.855,37.915 105.68,37.575 L97.345,22.05 C97.1198426,21.6825586 96.730057,21.4475682 96.3,21.42 L85.44,21.42 C85.0498222,21.4199903 84.7327477,21.7348319 84.73,22.125 L84.73,35.57 C84.73,35.96 84.575,36 84.385,35.66 L76.9,22 C76.6737566,21.6351423 76.2836558,21.4036949 75.855,21.38 L66.855,21.38 C66.4286582,21.4026591 66.0411441,21.6347932 65.82,22 L59.095,34.365 L58.42,35.61 L52.34,46.79 C52.2675541,46.9066847 52.2591817,47.0521343 52.3177602,47.1763611 C52.3763386,47.3005878 52.4938845,47.3866613 52.63,47.405 C52.805,47.405 52.965,47.405 53.355,47.405 L60.22,47.405 C60.6475859,47.3820688 61.0348284,47.1452118 61.25,46.775 L62.955,43.43 C63.1790521,43.0650453 63.5719428,42.8375823 64,42.825 L78.785,42.825 C79.2186835,42.8662489 79.6040873,43.1188193 79.815,43.5 L81.62,46.865 C81.8438351,47.2330325 82.2348645,47.4669018 82.665,47.49 L85.395,47.49 L90.14,47.49 L91.755,47.49 C92.1451778,47.4900097 92.4622523,47.1751681 92.465,46.785 L92.5,29.47 C92.4881158,29.2327583 92.4998401,28.9949227 92.535,28.76 C92.6805918,28.9554371 92.8093846,29.1628437 92.92,29.38 L102.675,46.88 C102.904062,47.2443893 103.295298,47.4754046 103.725,47.5 L108.285,47.5 C108.716008,47.4753463 109.108739,47.2445471 109.34,46.88 L119.15,29.425 C119.260615,29.2078437 119.389408,29.0004371 119.535,28.805 C119.57016,29.0399227 119.581884,29.2777583 119.57,29.515 L119.54,46.82 C119.542725,47.210988 119.859012,47.5272752 120.25,47.53 L126.605,47.53 C126.995988,47.5272752 127.312275,47.210988 127.315,46.82 L127.36,22.175 C127.338867,21.7977415 127.027844,21.5020509 126.65,21.5 L115.79,21.455 Z M67,37.215 C66.8404773,37.2396511 66.6817707,37.1660055 66.5976003,37.028272 C66.5134298,36.8905386 66.5202923,36.715712 66.615,36.585 L71,28.06 C71.18,27.715 71.5,27.71 71.655,28.06 L76.155,36.61 C76.250491,36.7390321 76.2583978,36.9130209 76.1750036,37.0501822 C76.0916095,37.1873436 75.933502,37.2603956 75.775,37.235 L67,37.215 Z" id="Shape"></path>
                <path d="M55.76,32.445 L55.76,32.445 L39.305,32.415 L39.215,32.415 C38.8528542,32.4399911 38.5669083,32.732387 38.55,33.095 L38.55,37.095 C38.5448399,37.141524 38.5448399,37.188476 38.55,37.235 C38.580802,37.4157993 38.6859951,37.5754026 38.84,37.675 L38.905,37.71 C38.9458495,37.7349932 38.9894784,37.7551296 39.035,37.77 C39.0931286,37.7898001 39.1536873,37.8015754 39.215,37.805 L39.265,37.805 L48.475,37.805 L48.475,38.565 C48.475,41.065 46.38,41.405 44.295,41.4 L35.76,41.4 C31.73,41.4 30.685,40.4 30.695,35.955 L30.695,32.725 C30.695,28.26 31.745,27.29 35.78,27.3 L44.455,27.3 C46.745,27.3 48.165,27.575 48.455,29.49 C48.455,29.49 48.455,29.49 48.455,29.52 C48.4576589,29.585919 48.4677221,29.65133 48.485,29.715 C48.5722753,30.0078641 48.8394449,30.2102653 49.145,30.215 L49.18,30.215 L55.635,30.215 L55.67,30.215 C56.0313163,30.2086175 56.3293012,29.9300664 56.36,29.57 C56.36,29.57 56.36,29.53 56.36,29.51 C56.36,29.49 56.36,29.475 56.36,29.455 L56.36,29.39 C56.36,24.315 55.11,21.035 46.04,21.02 L34.04,21.02 C26.84,21.02 22.54,22.8 22.54,30.435 L22.54,38.21 C22.54,45.845 26.81,47.65 34.01,47.665 L43.625,47.665 C45.6790802,47.721221 47.7345264,47.6276397 49.775,47.385 L56.455,35 L56.455,33.15 C56.455,32.7645113 56.1454499,32.4504679 55.76,32.445 Z" id="Path"></path>
            </g>
        </g>
    </g>
</svg>