<svg id="Laag_1" data-name="Laag 1" xmlns="http://www.w3.org/2000/svg" viewBox="0 0 301.61 135.68"><defs><style>.cls-1{fill:#1d1d1b;}</style></defs><title>GAM_logo</title><path class="cls-1" d="M404.19,372.86c-28.32-12.48-65.92-19.35-105.88-19.35s-77.55,6.87-105.88,19.35c-29,12.77-44.93,30-44.93,48.49s16,35.73,44.93,48.49c28.32,12.48,65.92,19.35,105.88,19.35s77.55-6.87,105.88-19.35c29-12.77,44.93-30,44.93-48.49S433.17,385.63,404.19,372.86Zm-2,92.41c-27.7,12.2-64.59,18.93-103.86,18.93s-76.16-6.72-103.86-18.93c-27-11.92-41.95-27.51-41.95-43.92s14.9-32,41.95-43.92c27.7-12.2,64.59-18.93,103.86-18.93s76.16,6.72,103.86,18.93c27,11.92,41.95,27.51,41.95,43.92S429.23,453.35,402.18,465.27Z" transform="translate(-147.51 -353.51)"/><path class="cls-1" d="M379,391.34a2.62,2.62,0,0,0-2.09,1.25l-16.73,31.06a0.7,0.7,0,0,1-1.34,0l-16.73-31.06a2.62,2.62,0,0,0-2.09-1.25H318.35a1.42,1.42,0,0,0-1.42,1.42v26.89c0,0.78-.31.86-0.68,0.18l-15-27.24a2.65,2.65,0,0,0-2.1-1.24h-18a2.63,2.63,0,0,0-2.09,1.25L265.7,417.34l-1.35,2.49-12.12,22.39a0.82,0.82,0,0,0,.58,1.23l1.45,0H268a2.54,2.54,0,0,0,2.06-1.26l3.4-6.69a2.54,2.54,0,0,1,2.06-1.26h29.57a2.62,2.62,0,0,1,2.09,1.25l3.62,6.72a2.62,2.62,0,0,0,2.09,1.25h18.18a1.42,1.42,0,0,0,1.42-1.42V407.44a7.08,7.08,0,0,1,.07-1.42,8.87,8.87,0,0,1,.76,1.24l19.57,35a2.68,2.68,0,0,0,2.11,1.24h9.12a2.68,2.68,0,0,0,2.11-1.24l19.57-35a8.87,8.87,0,0,1,.76-1.24,7.08,7.08,0,0,1,.07,1.42v34.61a1.42,1.42,0,0,0,1.42,1.42h12.72a1.42,1.42,0,0,0,1.42-1.42v-49.3a1.42,1.42,0,0,0-1.42-1.42H379ZM281.49,423a0.8,0.8,0,0,1-.77-1.26l8.78-17.06a0.67,0.67,0,0,1,1.31,0l9,17.08a0.78,0.78,0,0,1-.75,1.25H281.49Z" transform="translate(-147.51 -353.51)"/><path class="cls-1" d="M259,413.51H225.89a1.41,1.41,0,0,0-1.33,1.36s0,0,0,0,0,0,0,0v7.68s0,0.16,0,.25a1.77,1.77,0,0,0,0,.28,1.32,1.32,0,0,0,.58.88l0.13,0.08a1.36,1.36,0,0,0,.26.11,1.41,1.41,0,0,0,.36.07h18.52v1.51c0,5-4.18,5.69-8.35,5.69H219c-8.06,0-10.15-1.94-10.15-10.87v-6.48c0-8.93,2.09-10.87,10.15-10.87h17.35c4.58,0,7.42.53,8,4.36,0,0,0,0,0,.05a1.44,1.44,0,0,0,1.38,1.41h13.05a1.41,1.41,0,0,0,1.37-1.3s0-.07,0-0.11,0-.08,0-0.11v-0.13c0-10.15-2.52-16.71-20.67-16.71H215.42c-14.4,0-23,3.6-23,18.87v15.55c0,15.27,8.57,18.87,23,18.87h19.23a84.73,84.73,0,0,0,12.31-.58l13.47-24.88v-3.66A1.42,1.42,0,0,0,259,413.51Z" transform="translate(-147.51 -353.51)"/><path class="cls-1" d="M213.5,454.14h2.34v2.95a6.37,6.37,0,0,1-2.55.56,3.79,3.79,0,0,1-2.76-1,3.34,3.34,0,0,1-1-2.49,3.46,3.46,0,0,1,1.07-2.6,3.71,3.71,0,0,1,2.68-1,4.81,4.81,0,0,1,1.12.13,9.23,9.23,0,0,1,1.33.47v1a4.9,4.9,0,0,0-2.47-.72,2.62,2.62,0,0,0-1.92.78,2.75,2.75,0,0,0,0,3.85,2.78,2.78,0,0,0,2,.75,4.7,4.7,0,0,0,1.43-.27l0.09,0V455H213.5v-0.89Z" transform="translate(-147.51 -353.51)"/><path class="cls-1" d="M223.49,450.51a3.74,3.74,0,0,1,2.69,1,3.39,3.39,0,0,1,1.07,2.56,3.34,3.34,0,0,1-1.08,2.55,3.85,3.85,0,0,1-2.73,1,3.63,3.63,0,0,1-2.62-1,3.36,3.36,0,0,1-1-2.53,3.44,3.44,0,0,1,1.06-2.58A3.68,3.68,0,0,1,223.49,450.51Zm0,0.95a2.7,2.7,0,0,0-2,.75,2.54,2.54,0,0,0-.77,1.91,2.5,2.5,0,0,0,.77,1.87,2.86,2.86,0,0,0,3.87,0,2.55,2.55,0,0,0,.78-1.9,2.49,2.49,0,0,0-.78-1.86A2.65,2.65,0,0,0,223.53,451.46Z" transform="translate(-147.51 -353.51)"/><path class="cls-1" d="M234.67,450.51a3.74,3.74,0,0,1,2.69,1,3.39,3.39,0,0,1,1.07,2.56,3.34,3.34,0,0,1-1.08,2.55,3.85,3.85,0,0,1-2.73,1,3.63,3.63,0,0,1-2.62-1,3.36,3.36,0,0,1-1-2.53,3.44,3.44,0,0,1,1.06-2.58A3.68,3.68,0,0,1,234.67,450.51Zm0,0.95a2.7,2.7,0,0,0-2,.75,2.54,2.54,0,0,0-.77,1.91,2.5,2.5,0,0,0,.77,1.87,2.86,2.86,0,0,0,3.87,0,2.55,2.55,0,0,0,.78-1.9,2.49,2.49,0,0,0-.78-1.86A2.65,2.65,0,0,0,234.71,451.46Z" transform="translate(-147.51 -353.51)"/><path class="cls-1" d="M242.45,450.61h1v7h-1v-7Z" transform="translate(-147.51 -353.51)"/><path class="cls-1" d="M249.5,454.65l-0.76-.46a3.44,3.44,0,0,1-1-.86,1.62,1.62,0,0,1-.3-1A1.71,1.71,0,0,1,248,451a2.13,2.13,0,0,1,1.48-.51,2.81,2.81,0,0,1,1.6.49v1.13a2.31,2.31,0,0,0-1.62-.72,1.34,1.34,0,0,0-.8.23,0.68,0.68,0,0,0-.31.58,0.89,0.89,0,0,0,.23.59,2.92,2.92,0,0,0,.74.57l0.76,0.45a2.23,2.23,0,0,1,1.27,1.94,1.77,1.77,0,0,1-.56,1.36,2,2,0,0,1-1.46.52,3.06,3.06,0,0,1-1.88-.63v-1.27a2.34,2.34,0,0,0,1.87,1,1.17,1.17,0,0,0,.78-0.26,0.81,0.81,0,0,0,.31-0.65A1.55,1.55,0,0,0,249.5,454.65Z" transform="translate(-147.51 -353.51)"/><path class="cls-1" d="M261.23,456v1.1a5.2,5.2,0,0,1-2.53.6,3.9,3.9,0,0,1-2-.47,3.44,3.44,0,0,1-1.29-1.29,3.51,3.51,0,0,1-.47-1.78,3.39,3.39,0,0,1,1.08-2.56,3.72,3.72,0,0,1,2.67-1,6.27,6.27,0,0,1,2.44.57v1.07a4.79,4.79,0,0,0-2.39-.7,2.76,2.76,0,0,0-2,.75,2.51,2.51,0,0,0-.79,1.89,2.48,2.48,0,0,0,.78,1.88,2.77,2.77,0,0,0,2,.74A4.51,4.51,0,0,0,261.23,456Z" transform="translate(-147.51 -353.51)"/><path class="cls-1" d="M270.14,450.61h1v7h-1v-3h-3.91v3h-1v-7h1v3h3.91v-3Z" transform="translate(-147.51 -353.51)"/><path class="cls-1" d="M275.46,450.61h3.94v0.89h-2.95v2.12h2.85v0.89h-2.85v2.16h3v0.89h-4v-6.95Z" transform="translate(-147.51 -353.51)"/><path class="cls-1" d="M290.16,450.57h0.7l3.12,7h-1L292,455.51h-3l-0.87,2.06h-1Zm1.46,4-1.12-2.52-1,2.52h2.16Z" transform="translate(-147.51 -353.51)"/><path class="cls-1" d="M302.17,450.61h1v3.95a4.68,4.68,0,0,1-.12,1.21,2.64,2.64,0,0,1-.29.68,2.18,2.18,0,0,1-.42.49,3.19,3.19,0,0,1-2.16.71,3.23,3.23,0,0,1-2.18-.71,2.29,2.29,0,0,1-.42-0.49,2.56,2.56,0,0,1-.28-0.67,4.92,4.92,0,0,1-.11-1.24v-3.94h1v3.95a2.93,2.93,0,0,0,.22,1.36,1.6,1.6,0,0,0,.68.62,2.38,2.38,0,0,0,1.08.23,2.19,2.19,0,0,0,1.44-.46,1.44,1.44,0,0,0,.42-0.59,3.62,3.62,0,0,0,.13-1.16v-3.95Z" transform="translate(-147.51 -353.51)"/><path class="cls-1" d="M306.74,450.6h5.81v0.89h-2.43v6.08h-1v-6.08h-2.39V450.6Z" transform="translate(-147.51 -353.51)"/><path class="cls-1" d="M319,450.51a3.74,3.74,0,0,1,2.69,1,3.39,3.39,0,0,1,1.07,2.56,3.34,3.34,0,0,1-1.08,2.55,3.85,3.85,0,0,1-2.73,1,3.63,3.63,0,0,1-2.62-1,3.36,3.36,0,0,1-1-2.53,3.44,3.44,0,0,1,1.06-2.58A3.68,3.68,0,0,1,319,450.51Zm0,0.95a2.7,2.7,0,0,0-2,.75,2.54,2.54,0,0,0-.77,1.91,2.5,2.5,0,0,0,.77,1.87,2.86,2.86,0,0,0,3.87,0,2.55,2.55,0,0,0,.78-1.9,2.49,2.49,0,0,0-.78-1.86A2.65,2.65,0,0,0,319.07,451.46Z" transform="translate(-147.51 -353.51)"/><path class="cls-1" d="M338,450.61h0.93v7h-1v-5.41l-2.14,2.69h-0.18l-2.16-2.69v5.41h-1v-7h0.94l2.31,2.86Z" transform="translate(-147.51 -353.51)"/><path class="cls-1" d="M343.17,450.61h3.94v0.89h-2.95v2.12H347v0.89h-2.85v2.16h3v0.89h-4v-6.95Z" transform="translate(-147.51 -353.51)"/><path class="cls-1" d="M351.07,457.56v-6.95h2.35a5,5,0,0,1,2.25.43,3.22,3.22,0,0,1,1.31,1.25,3.48,3.48,0,0,1,.49,1.8,3.4,3.4,0,0,1-.27,1.33,3.44,3.44,0,0,1-1.95,1.87,3.6,3.6,0,0,1-.72.21,9.89,9.89,0,0,1-1.26.05h-2.2Zm2.24-6.06h-1.25v5.18h1.28a5.12,5.12,0,0,0,1.16-.1,2.8,2.8,0,0,0,.69-0.26,2.41,2.41,0,0,0,.51-0.39,2.58,2.58,0,0,0,.74-1.89,2.41,2.41,0,0,0-1.4-2.26,2.7,2.7,0,0,0-.68-0.22A6.92,6.92,0,0,0,353.31,451.5Z" transform="translate(-147.51 -353.51)"/><path class="cls-1" d="M361.5,450.61h1v7h-1v-7Z" transform="translate(-147.51 -353.51)"/><path class="cls-1" d="M369,450.57h0.7l3.12,7h-1l-0.93-2.06h-3l-0.87,2.06h-1Zm1.46,4-1.12-2.52-1,2.52h2.16Z" transform="translate(-147.51 -353.51)"/><path class="cls-1" d="M376.43,450.61h1v7h-1v-7Z" transform="translate(-147.51 -353.51)"/><path class="cls-1" d="M381.78,457.57v-7h1.74a2.52,2.52,0,0,1,1.68.52,1.75,1.75,0,0,1,.62,1.41,1.74,1.74,0,0,1-1.18,1.71,3.09,3.09,0,0,1,.65.6,12,12,0,0,1,.9,1.32q0.36,0.59.58,0.89l0.37,0.5H386l-0.3-.46L385.6,457l-0.19-.27-0.31-.51-0.33-.54a5.43,5.43,0,0,0-.57-0.68,2.17,2.17,0,0,0-.46-0.37,1.58,1.58,0,0,0-.7-0.11h-0.26v3h-1Zm1.3-6.11h-0.3v2.2h0.38a2.8,2.8,0,0,0,1-.13,1,1,0,0,0,.44-0.39,1.14,1.14,0,0,0,.16-0.6,1.07,1.07,0,0,0-.17-0.6,0.93,0.93,0,0,0-.49-0.38A3.55,3.55,0,0,0,383.08,451.46Z" transform="translate(-147.51 -353.51)"/></svg>