<?xml version="1.0" encoding="UTF-8"?>
<svg width="28px" height="44px" viewBox="0 0 28 44" version="1.1" xmlns="http://www.w3.org/2000/svg" xmlns:xlink="http://www.w3.org/1999/xlink">
    <!-- Generator: Sketch 55.1 (78136) - https://sketchapp.com -->
    <title>list arrows</title>
    <desc>Created with Sketch.</desc>
    <g id="🎨-Design-::-Desktop-v1.0" stroke="none" stroke-width="1" fill="none" fill-rule="evenodd">
        <g id="_icons" transform="translate(-666.000000, -357.000000)" fill="#022835" fill-rule="nonzero">
            <g id="list-arrows" transform="translate(666.000000, 357.000000)">
                <g id="chevron-down" transform="translate(0.000000, 28.000000)">
                    <path d="M14,11.1715729 L24.5857864,0.585786438 C25.366835,-0.195262146 26.633165,-0.195262146 27.4142136,0.585786438 C28.1952621,1.36683502 28.1952621,2.63316498 27.4142136,3.41421356 L15.4142136,15.4142136 C14.633165,16.1952621 13.366835,16.1952621 12.5857864,15.4142136 L0.585786438,3.41421356 C-0.195262146,2.63316498 -0.195262146,1.36683502 0.585786438,0.585786438 C1.36683502,-0.195262146 2.63316498,-0.195262146 3.41421356,0.585786438 L14,11.1715729 Z" id="Shape"></path>
                </g>
                <g id="chevron-up">
                    <path d="M14,4.82842712 L3.41421356,15.4142136 C2.63316498,16.1952621 1.36683502,16.1952621 0.585786438,15.4142136 C-0.195262146,14.633165 -0.195262146,13.366835 0.585786438,12.5857864 L12.5857864,0.585786438 C13.366835,-0.195262146 14.633165,-0.195262146 15.4142136,0.585786438 L27.4142136,12.5857864 C28.1952621,13.366835 28.1952621,14.633165 27.4142136,15.4142136 C26.633165,16.1952621 25.366835,16.1952621 24.5857864,15.4142136 L14,4.82842712 Z" id="Shape"></path>
                </g>
            </g>
        </g>
    </g>
</svg>