<?xml version="1.0" encoding="UTF-8"?>
<svg width="20px" height="24px" viewBox="0 0 20 24" version="1.1" xmlns="http://www.w3.org/2000/svg" xmlns:xlink="http://www.w3.org/1999/xlink">
    <!-- Generator: Sketch 55.1 (78136) - https://sketchapp.com -->
    <title>map-pin</title>
    <desc>Created with Sketch.</desc>
    <g id="🎨-Design-::-Desktop-v1.0" stroke="none" stroke-width="1" fill="none" fill-rule="evenodd">
        <g id="_icons" transform="translate(-817.000000, -366.000000)" fill="#022835" fill-rule="nonzero">
            <g id="map-pin" transform="translate(817.000000, 366.000000)">
                <path d="M10.7833232,21.170845 C11.803622,20.3583849 12.8242479,19.4398215 13.7740473,18.4372555 C16.4274016,15.6364926 18,12.7533955 18,10.0000001 C18,5.58172209 14.418278,2.00000013 10,2.00000013 C5.58172205,2.00000013 2,5.58172209 2,10.0000001 C2,12.7533955 3.57259843,15.6364926 6.22595269,18.4372555 C7.1757521,19.4398215 8.19637802,20.3583849 9.21667678,21.170845 C9.49517109,21.392609 9.75768846,21.5936104 10,21.7726169 C10.2423115,21.5936104 10.5048289,21.392609 10.7833232,21.170845 Z M15.2259527,19.8127448 C14.2070021,20.8883037 13.118253,21.8681779 12.0291768,22.7354053 C11.6473986,23.0394138 11.2921737,23.3081096 10.9722093,23.539195 C10.777224,23.6800177 10.6351454,23.7784203 10.5547002,23.8320504 C10.2188008,24.0559834 9.78119921,24.0559834 9.4452998,23.8320504 C9.36485462,23.7784203 9.22277597,23.6800177 9.02779069,23.539195 C8.70782631,23.3081096 8.35260143,23.0394138 7.97082322,22.7354053 C6.88174698,21.8681779 5.7929979,20.8883037 4.77404731,19.8127448 C1.80240157,16.6760076 0,13.3716047 0,10.0000001 C0,4.47715257 4.47715256,1.34110451e-07 10,1.34110451e-07 C15.5228474,1.34110451e-07 20,4.47715257 20,10.0000001 C20,13.3716047 18.1975984,16.6760076 15.2259527,19.8127448 Z" id="Shape"></path>
                <path d="M10,14 C7.790861,14 6,12.209139 6,10 C6,7.790861 7.790861,6 10,6 C12.209139,6 14,7.790861 14,10 C14,12.209139 12.209139,14 10,14 Z M10,12 C11.1045695,12 12,11.1045695 12,10 C12,8.8954305 11.1045695,8 10,8 C8.8954305,8 8,8.8954305 8,10 C8,11.1045695 8.8954305,12 10,12 Z" id="Oval"></path>
            </g>
        </g>
    </g>
</svg>