<?xml version="1.0" encoding="UTF-8"?>
<svg width="20px" height="20px" viewBox="0 0 20 20" version="1.1" xmlns="http://www.w3.org/2000/svg" xmlns:xlink="http://www.w3.org/1999/xlink">
    <!-- Generator: Sketch 55.1 (78136) - https://sketchapp.com -->
    <title>search</title>
    <desc>Created with Sketch.</desc>
    <g id="🎨-Design-::-Desktop-v1.0" stroke="none" stroke-width="1" fill="none" fill-rule="evenodd">
        <g id="_icons" transform="translate(-212.000000, -296.000000)" fill="#FFFFFF" fill-rule="nonzero">
            <g id="search" transform="translate(212.000000, 296.000000)">
                <path d="M9,18 C4.02943725,18 0,13.9705627 0,9 C0,4.02943725 4.02943725,0 9,0 C13.9705627,0 18,4.02943725 18,9 C18,13.9705627 13.9705627,18 9,18 Z M9,16 C12.8659932,16 16,12.8659932 16,9 C16,5.13400675 12.8659932,2 9,2 C5.13400675,2 2,5.13400675 2,9 C2,12.8659932 5.13400675,16 9,16 Z" id="Oval"></path>
                <path d="M19.7071068,18.2928932 C20.0976311,18.6834175 20.0976311,19.3165825 19.7071068,19.7071068 C19.3165825,20.0976311 18.6834175,20.0976311 18.2928932,19.7071068 L13.9428932,15.3571068 C13.5523689,14.9665825 13.5523689,14.3334175 13.9428932,13.9428932 C14.3334175,13.5523689 14.9665825,13.5523689 15.3571068,13.9428932 L19.7071068,18.2928932 Z" id="Shape"></path>
            </g>
        </g>
    </g>
</svg>